<svg height="512" viewBox="0 0 58 58" width="512" xmlns="http://www.w3.org/2000/svg"><g id="Page-1" fill="none" fill-rule="evenodd"><g id="039---Internet-News" fill-rule="nonzero" transform="translate(0 -1)"><path id="Shape" d="m58 30c0 .34-.01.67-.03 1-.1197741 4.1759092-1.1612944 8.2736942-3.05 12-.33.68-.7 1.35-1.09 2-5.2447792 8.7022775-14.6694351 14.0162195-24.83 14-2.7865736.0052151-5.5590359-.3956634-8.23-1.19-6.9355361-2.0537244-12.85504014-6.6217272-16.6-12.81-.39-.65-.76-1.32-1.09-2-1.88870558-3.7263058-2.93022592-7.8240908-3.05-12-.02-.33-.03-.66-.03-1s.01-.67.03-1c.13709865-4.5558985 1.36110097-9.0130498 3.57-13 .37-.68.77-1.35 1.21-2 3.76573302-5.69094104 9.4167669-9.87256452 15.96-11.81l.01-.01c12.2268554-3.60661087 25.3757048 1.18880414 32.41 11.82.44.65.84 1.32 1.21 2 2.208899 3.9869502 3.4329013 8.4441015 3.57 13 .02.33.03.66.03 1z" fill="#67b9cc"/><g fill="#3b97d3"><path id="Shape" d="m48.85 43c1.1160683-3.2327575 1.8019541-6.5983049 2.04-10.01l-1.99-.14c-.24032 3.4688412-.9709141 6.8861363-2.17 10.15h-7.77c.441908-2.6314394.7357038-5.2856174.88-7.95l-1.99-.12c-.1570896 2.705427-.4675888 5.3997588-.93 8.07h-6.92v-6h-2v6h-6.92c-.4091189-2.3468656-.6961716-4.7133813-.86-7.09l-2 .15c.17 2.34.45 4.68.83 6.94h-7.74c-.6532796-1.7195455-1.1682486-3.4884973-1.54-5.29v-4.71h-2v4.81c.00170607.0670699.00839112.1339204.02.2.34260055 1.693592.80373528 3.3610285 1.38 4.99h-6.09c.33.68.7 1.35 1.09 2h5.77c2.47 5.81 6.3 10.31 10.83 12.81 2.6709641.7943366 5.4434264 1.1952151 8.23 1.19 2.8310844.0008957 5.6472411-.4100746 8.36-1.22 4.53-2.52 8.3-7.02 10.72-12.78h5.75c.39-.65.76-1.32 1.09-2zm-36.71 2h7.28c1.02 5.02 2.6 9.43 4.71 12.15-4.95-1.76-9.25-6.14-11.99-12.15zm15.86 12.77c-2.41-1-4.97-5.51-6.53-12.77h6.53zm2 0v-12.77h6.54c-1.55 7.28-4.1 11.78-6.54 12.77zm3.76-.56c2.04-2.58 3.73-6.82 4.83-12.21h7.32c-2.73 6.06-7.07 10.49-12.15 12.21z"/><path id="Shape" d="m54.4 16c-.37-.68-.77-1.35-1.21-2h-5.6c-2.1315127-4.93625901-5.7678419-9.07306468-10.39-11.82-5.3602675-1.57333667-11.0597325-1.57333667-16.42 0l-.01.01c-4.6125488 2.74826456-8.2412167 6.88081685-10.37 11.81h-5.59c-.44.65-.84 1.32-1.21 2h5.95c-.75482732 1.9433625-1.34360078 3.9471995-1.76 5.99-.01160888.0660796-.01829393.1329301-.02.2v6.81h2v-6.71c.4406507-2.1512542 1.0800609-4.2569558 1.91-6.29h7.55c-.4872326 2.6253301-.824446 5.2762951-1.01 7.94l2 .15c.187026-2.715325.5376627-5.4168971 1.05-8.09h6.73v7h2v-7h6.73c.5123373 2.6731029.862974 5.374675 1.05 8.09l2-.15c-.185554-2.6637049-.5227674-5.3146699-1.01-7.94h7.53c1.570696 3.8340809 2.4672127 7.9106944 2.65 12.05l2-.1c-.1883096-4.0914725-1.0323874-8.1261641-2.5-11.95zm-34.77-2h-7.03c2.75-5.5 6.85-9.49 11.53-11.15-1.97 2.54-3.47 6.55-4.5 11.15zm8.37 0h-6.3c1.57-6.67 4-10.81 6.3-11.77zm2 0v-11.77c2.3.96 4.73 5.1 6.3 11.77zm8.37 0c-1.03-4.6-2.53-8.62-4.5-11.15 4.71 1.67 8.79 5.69 11.52 11.15z"/><path id="Shape" d="m58 30c0 .34-.01.67-.03 1h-5.97v-2h5.97c.02.33.03.66.03 1z"/><path id="Shape" d="m6 29v2h-5.97c-.02-.33-.03-.66-.03-1s.01-.67.03-1z"/></g><rect id="Rectangle-path" fill="#ff5364" height="16" rx="4" width="46" x="6" y="22"/><path id="Shape" d="m44 29c-.4851707-.000473-.9000069-.3491365-.9839455-.8269912-.0839386-.4778548.1872399-.9470217.6432053-1.1128119.4559653-.1657902.9651545.0196329 1.2077402.4398031.2843876.4596821.882589.61017 1.3506397.3397768s.6365131-.8637835.3803603-1.3397768c-.7279453-1.2608382-2.2560751-1.8170246-3.6241605-1.3190692-1.3680854.4979555-2.1811672 1.9062958-1.9283301 3.3400638.252837 1.433768 1.4986001 2.4790424 2.9544906 2.4790054.4851707.000473.9000069.3491365.9839455.8269912.0839386.4778548-.1872399.9470217-.6432053 1.1128119-.4559653.1657902-.9651545-.0196329-1.2077402-.4398031-.2843876-.4596821-.882589-.61017-1.3506397-.3397768s-.6365131.8637835-.3803603 1.3397768c.7279453 1.2608382 2.2560751 1.8170246 3.6241605 1.3190692 1.3680854-.4979555 2.1811672-1.9062958 1.9283301-3.3400638-.252837-1.433768-1.4986001-2.4790424-2.9544906-2.4790054z" fill="#ecf0f1"/><path id="Shape" d="m26 27c.5522847 0 1-.4477153 1-1s-.4477153-1-1-1h-3c-1.1045695 0-2 .8954305-2 2v6c0 1.1045695.8954305 2 2 2h3c.5522847 0 1-.4477153 1-1s-.4477153-1-1-1h-3v-2h2c.5522847 0 1-.4477153 1-1s-.4477153-1-1-1h-2v-2z" fill="#ecf0f1"/><path id="Shape" d="m38.164 25.014c-.5441602-.0903478-1.0587112.2769969-1.15.821l-.914 5.506-1.265-1.9c-.1961648-.2622542-.5044975-.4166681-.832-.4166681s-.6358352.1544139-.832.4166681l-1.265 1.9-.917-5.506c-.1024647-.5331533-.6116119-.8871593-1.1470763-.7975532-.5354645.0896062-.9016193.5900877-.8249237 1.1275532l1.333 8c.0677359.4044591.3755458.7265662.7765153.8125828.4009694.0860165.813813-.0814949 1.0414847-.4225828l1.832-2.755 1.835 2.752c.2276717.3410879.6405153.5085993 1.0414847.4225828.4009695-.0860166.7087794-.4081237.7765153-.8125828l1.333-8c.0890912-.5437833-.2785051-1.0571659-.822-1.148z" fill="#ecf0f1"/><path id="Shape" d="m18 25c-.5522847 0-1 .4477153-1 1v4.49l-3.111-5.017c-.2349015-.3790479-.6923949-.5567545-1.1215704-.4356574-.4291754.1210971-.726305.5117297-.7284296.9576574l-.039 8c-.0013304.2660817.1034388.5217221.2911196.7103412.1876807.1886192.4427953.2946621.7088804.2946588.550338.0000069.9972483-.4446689 1-.995l.022-4.522 3.128 5.044c.235394.3798243.6942105.557379 1.1239658.4349568s.7261313-.5151047.7260342-.9619568v-8c0-.5522847-.4477153-1-1-1z" fill="#ecf0f1"/></g></g></svg>